<?xml version="1.0" standalone="no"?>
<!DOCTYPE svg PUBLIC "-//W3C//DTD SVG 20010904//EN"
 "http://www.w3.org/TR/2001/REC-SVG-20010904/DTD/svg10.dtd">
<svg version="1.0" xmlns="http://www.w3.org/2000/svg"
 width="300.000000pt" height="300.000000pt" viewBox="0 0 300.000000 300.000000"
 preserveAspectRatio="xMidYMid meet">
<metadata>
Created by potrace 1.11, written by Peter Selinger 2001-2013
</metadata>
<g transform="translate(0.000000,300.000000) scale(0.100000,-0.100000)"
fill="#000000" stroke="none">
<path d="M2928 2685 c-2 -2 -41 -6 -88 -9 -123 -9 -187 -16 -255 -26 -33 -5
-78 -12 -100 -15 -100 -15 -283 -70 -381 -115 -141 -63 -291 -179 -369 -285
-16 -22 -32 -42 -35 -45 -16 -14 -72 -116 -104 -189 -35 -80 -80 -222 -91
-290 -3 -19 -7 -37 -9 -40 -2 -3 -7 -31 -10 -61 -4 -30 -8 -64 -11 -75 -2 -11
-4 -38 -4 -59 l-1 -40 -54 78 c-177 258 -411 392 -756 432 -41 5 -283 5 -310
0 -14 -3 -50 -7 -80 -11 -69 -7 -218 -32 -229 -39 -10 -7 97 -313 148 -420 92
-196 202 -316 368 -400 53 -26 187 -68 258 -81 59 -10 418 -16 432 -7 8 5 4
30 -16 92 -46 141 -105 235 -210 338 -54 52 -202 162 -219 162 -5 0 -17 9 -26
19 -18 19 -17 19 35 0 159 -60 275 -134 369 -236 100 -108 190 -274 216 -397
6 -26 21 -110 30 -156 7 -43 7 -295 -1 -330 -4 -22 -12 -80 -18 -145 -2 -18 5
-19 148 -20 83 -1 153 0 156 1 3 2 1 36 -6 76 -7 40 -16 100 -20 133 -10 92
-14 441 -5 525 10 94 20 177 26 204 2 12 7 35 9 51 3 17 17 72 31 124 74 276
198 481 375 623 57 46 200 121 254 134 l30 7 -30 -24 c-226 -180 -375 -375
-444 -584 -36 -109 -37 -116 -55 -282 -5 -52 1 -54 97 -37 257 44 448 135 598
283 187 185 286 434 355 896 3 17 11 66 19 110 22 125 22 128 3 130 -9 2 -18
2 -20 0z"/>
</g>
</svg>
